3.0Hz3min_grf.mot
version=1
nRows=27
nColumns 19
inDegrees=yes
endheader
time	1_ground_force_vx	1_ground_force_vy	1_ground_force_vz	1_ground_force_px	1_ground_force_py	1_ground_force_pz	1_ground_torque_x	1_ground_torque_y	1_ground_torque_z	2_ground_force_vx	2_ground_force_vy	2_ground_force_vz	2_ground_force_px	2_ground_force_py	2_ground_force_pz	2_ground_torque_x	2_ground_torque_y	2_ground_torque_z
            2.497500	            5.988480	          404.836851	          -30.745931	           -0.213831	            0.006190	           -0.396890	           -0.019627	           -1.326869	            0.100771	           19.928608	          479.838821	           38.119298	           -0.225683	            0.005645	           -0.690897	            0.039794	            0.958165	            0.076118
            2.498000	            5.754923	          412.413077	          -31.905152	           -0.214025	            0.006189	           -0.396499	           -0.017816	           -1.276747	            0.098772	           18.357802	          486.826873	           39.271199	           -0.225465	            0.005645	           -0.690683	            0.034899	            0.925489	            0.074657
            2.498500	            5.337718	          419.629326	          -33.203034	           -0.214212	            0.006187	           -0.396211	           -0.015365	           -1.207964	            0.095580	           16.454659	          495.100551	           41.037903	           -0.225315	            0.005647	           -0.691264	            0.030549	            0.919184	            0.076189
            2.499000	            4.966326	          425.764383	          -34.597373	           -0.214254	            0.006188	           -0.396390	           -0.013366	           -1.145893	            0.093115	           14.132983	          502.453676	           42.332221	           -0.224990	            0.005649	           -0.691297	            0.029566	            1.051111	            0.088557
            2.499500	            5.007015	          432.801407	          -36.126442	           -0.214168	            0.006189	           -0.396633	           -0.012802	           -1.106585	            0.092368	           12.559015	          510.361154	           43.862831	           -0.224628	            0.005650	           -0.691341	            0.026125	            1.061652	            0.091243
            2.500000	            4.453240	          440.376391	          -37.009731	           -0.214151	            0.006188	           -0.396291	           -0.012459	           -1.232081	            0.103545	           10.848568	          517.162489	           45.577271	           -0.224655	            0.005650	           -0.691336	            0.021601	            1.029751	            0.090751
            2.500500	            3.943358	          447.414156	          -38.720858	           -0.214326	            0.006188	           -0.396419	           -0.012042	           -1.366233	            0.118239	            9.134052	          525.069398	           47.107941	           -0.224378	            0.005652	           -0.691701	            0.017971	            1.033047	            0.092682
            2.501000	            3.663305	          456.072754	          -40.058751	           -0.214476	            0.006186	           -0.395963	           -0.011238	           -1.399049	            0.122884	            7.325835	          532.975969	           48.638651	           -0.224181	            0.005653	           -0.691631	            0.014315	            1.041484	            0.095044
            2.501500	            3.155409	          462.206015	          -41.040049	           -0.214561	            0.006187	           -0.396133	           -0.009128	           -1.337053	            0.118719	            5.611921	          540.699301	           50.027880	           -0.223869	            0.005654	           -0.691726	            0.010041	            0.967479	            0.089515
            2.502000	            2.509298	          469.601864	          -42.199018	           -0.214763	            0.006188	           -0.396456	           -0.007251	           -1.357058	            0.121947	            3.856598	          546.948212	           51.693441	           -0.223828	            0.005653	           -0.691365	            0.006720	            0.953086	            0.090078
            2.502500	            2.001857	          475.734339	          -42.996892	           -0.214792	            0.006190	           -0.396796	           -0.005250	           -1.247564	            0.112755	            1.854979	          556.511601	           53.183216	           -0.223606	            0.005656	           -0.691862	            0.003250	            0.975029	            0.093179
            2.503000	            1.767419	          484.393338	          -44.426611	           -0.214736	            0.006188	           -0.396486	           -0.004849	           -1.329032	            0.121893	           -0.140555	          564.416948	           54.901718	           -0.223614	            0.005657	           -0.692160	           -0.000269	            1.079695	            0.105024
            2.503500	            1.166352	          493.052070	          -45.809566	           -0.214953	            0.006187	           -0.396256	           -0.003448	           -1.457525	            0.135419	           -2.320227	          571.401234	           56.476230	           -0.223492	            0.005656	           -0.691927	           -0.004399	            1.083305	            0.107072
            2.504000	            0.795188	          499.186734	          -47.112193	           -0.215113	            0.006189	           -0.396627	           -0.002401	           -1.507160	            0.142243	           -3.944847	          580.411942	           58.433156	           -0.223077	            0.005658	           -0.692032	           -0.007242	            1.065556	            0.107275
            2.504500	           -0.034526	          507.844438	          -48.265297	           -0.215292	            0.006187	           -0.396159	            0.000109	           -1.609035	            0.152922	           -5.234871	          587.582305	           60.383372	           -0.223021	            0.005658	           -0.691945	           -0.008920	            1.001202	            0.102889
            2.505000	           -0.360371	          515.601865	          -49.652800	           -0.215357	            0.006187	           -0.396192	            0.001056	           -1.510274	            0.145440	           -6.996923	          595.673292	           61.867791	           -0.222924	            0.005659	           -0.692016	           -0.011537	            0.982177	            0.102011
            2.505500	           -0.961079	          523.539141	          -50.947128	           -0.215527	            0.006188	           -0.396347	            0.002666	           -1.452267	            0.141324	           -8.851866	          603.578690	           63.680089	           -0.222711	            0.005660	           -0.692199	           -0.014875	            1.014257	            0.107008
            2.506000	           -1.744671	          531.295421	          -52.058358	           -0.215425	            0.006187	           -0.396282	            0.004730	           -1.440372	            0.141133	          -10.425066	          611.301191	           65.444683	           -0.222806	            0.005659	           -0.692150	           -0.017507	            1.026541	            0.109899
            2.506500	           -2.070111	          539.953223	          -53.212713	           -0.215677	            0.006187	           -0.396267	            0.005654	           -1.474625	            0.145325	          -12.001548	          619.944121	           67.306426	           -0.222695	            0.005661	           -0.692341	           -0.019606	            1.012754	            0.109953
            2.507000	           -2.487888	          548.431891	          -54.642749	           -0.215818	            0.006187	           -0.396115	            0.006782	           -1.495032	            0.148957	          -13.769540	          629.692101	           68.890607	           -0.222757	            0.005662	           -0.692776	           -0.022459	            1.027060	            0.112364
            2.507500	           -2.905419	          556.189299	          -56.030017	           -0.215885	            0.006187	           -0.396280	            0.008468	           -1.621021	            0.163300	          -15.150544	          636.125060	           70.979019	           -0.222596	            0.005661	           -0.692407	           -0.025360	            1.064786	            0.118809
            2.508000	           -3.690997	          564.849962	          -57.871077	           -0.216076	            0.006187	           -0.396248	            0.011451	           -1.752446	            0.179545	          -16.492132	          644.584802	           72.793069	           -0.222371	            0.005662	           -0.692517	           -0.026744	            1.045290	            0.118045
            2.508500	           -4.246350	          572.968329	          -59.348170	           -0.216212	            0.006187	           -0.396261	            0.012119	           -1.635285	            0.169383	          -17.507100	          653.414009	           74.608294	           -0.222414	            0.005663	           -0.692759	           -0.026954	            1.005989	            0.114866
            2.509000	           -4.939104	          581.627044	          -60.730898	           -0.216381	            0.006187	           -0.396166	            0.013411	           -1.579274	            0.164901	          -18.566322	          661.506986	           76.280135	           -0.222439	            0.005663	           -0.692837	           -0.026310	            0.937416	            0.108096
            2.509500	           -5.493757	          589.023365	          -61.981807	           -0.216322	            0.006188	           -0.396399	            0.014929	           -1.600618	            0.168430	          -20.141476	          669.781513	           78.140548	           -0.222388	            0.005663	           -0.692849	           -0.032258	            1.072694	            0.125147
            2.510000	           -6.232386	          597.862245	          -63.363649	           -0.216579	            0.006187	           -0.396323	            0.017452	           -1.674180	            0.177436	          -21.155860	          678.427188	           79.767404	           -0.222324	            0.005665	           -0.693208	           -0.034078	            1.092827	            0.128491
            2.510500	           -6.925074	          606.160489	          -64.747907	           -0.216515	            0.006187	           -0.396251	            0.020870	           -1.826803	            0.195133	          -21.883872	          685.601087	           81.295027	           -0.222235	            0.005664	           -0.692927	           -0.034383	            1.077180	            0.127726
